<svg xmlns="http://www.w3.org/2000/svg" xmlns:xlink="http://www.w3.org/1999/xlink" version="1.1" width="256" height="256" viewBox="0 0 256 256" xml:space="preserve">

<defs>
</defs>
<g style="stroke: none; stroke-width: 0; stroke-dasharray: none; stroke-linecap: butt; stroke-linejoin: miter; stroke-miterlimit: 10; fill: none; fill-rule: nonzero; opacity: 1;" transform="translate(1.4065934065934016 1.4065934065934016) scale(2.81 2.81)" >
	<path fill="#FFF" d="M 88 30.17 h -4.569 V 17.328 c 0 -0.542 -0.221 -1.062 -0.61 -1.438 c -0.389 -0.376 -0.891 -0.573 -1.459 -0.561 c -3.849 0.133 -7.603 0.626 -11.21 1.434 V 7.365 c 0 -0.689 -0.354 -1.329 -0.938 -1.695 c -0.584 -0.367 -1.313 -0.406 -1.934 -0.105 c -8.602 4.169 -16.261 12.069 -22.793 23.497 c -9.754 -8.652 -21.122 -13.27 -33.829 -13.733 c -0.542 -0.032 -1.07 0.181 -1.461 0.559 c -0.391 0.377 -0.612 0.897 -0.612 1.44 v 6.215 c -1.069 0.088 -2.145 0.192 -3.227 0.325 c -1.009 0.125 -1.764 0.986 -1.755 2.002 c 0 0 0.014 1.635 0.037 4.3 H 2 c -1.104 0 -2 0.896 -2 2 v 50.465 c 0 1.104 0.896 2 2 2 h 43 h 43 c 1.104 0 2 -0.896 2 -2 V 32.17 C 90 31.066 89.104 30.17 88 30.17 z M 79.431 19.434 v 46.368 c -9.837 0.639 -18.889 3.564 -27.045 8.704 c 5.033 -7.016 10.602 -12.039 16.637 -14.964 c 0.689 -0.334 1.128 -1.033 1.128 -1.8 V 20.868 C 73.137 20.145 76.241 19.655 79.431 19.434 z M 66.151 10.735 v 45.777 C 59.077 60.246 52.657 66.547 47 75.299 V 32.765 C 52.595 22.479 59.024 15.086 66.151 10.735 z M 43 33.118 v 45.043 c -8.913 -7.41 -19.117 -11.557 -30.416 -12.352 V 25.363 c 0 -0.027 0.005 -0.052 0.003 -0.08 c 0 -0.007 -0.003 -0.014 -0.003 -0.022 v -5.818 C 24.003 20.313 34.223 24.907 43 33.118 z M 8.584 27.563 v 40.142 c 0 1.076 0.852 1.959 1.927 1.999 c 5.44 0.198 10.616 1.225 15.506 3.063 c -5.705 -0.997 -11.717 -1.205 -18.014 -0.605 c -0.061 -7.037 -0.252 -29.033 -0.346 -39.989 c 0 -0.001 0 -0.002 0 -0.003 c 0 -0.001 0 -0.002 0 -0.003 c -0.016 -1.872 -0.03 -3.431 -0.039 -4.527 C 7.944 27.607 8.261 27.591 8.584 27.563 z M 4 71.745 c 0.014 1.614 0.022 2.586 0.023 2.662 c 0.004 0.57 0.252 1.112 0.681 1.488 c 0.43 0.376 1 0.551 1.564 0.481 c 11.722 -1.453 22.404 -0.014 31.863 4.26 H 4 V 71.745 z M 86 80.636 H 50.547 C 59.617 73.778 70.004 70.1 81.5 69.704 c 1.076 -0.037 1.931 -0.921 1.931 -1.999 V 34.17 H 86 V 80.636 z" style="stroke: none; stroke-width: 1; stroke-dasharray: none; stroke-linecap: butt; stroke-linejoin: miter; stroke-miterlimit: 10; fill: rgb(0,0,0); fill-rule: nonzero; opacity: 1;" transform=" matrix(1 0 0 1 0 0) " stroke-linecap="round" />
</g>
</svg>